<svg version="1.2" xmlns="http://www.w3.org/2000/svg" viewBox="0 0 6732 5760" width="6732" height="5760">
	<title>MangaVision-pdf</title>
	<style>
		.s0 { fill: #e6e6e6 } 
	</style>
	<path id="Path 3" fill-rule="evenodd" class="s0" d="m4590.2 5084.9c-11.3-18.4-17.2-24.8-27.4-45.1-9.8-19.3-18.3-29.8-26.1-46.5-61.2-132.1-82.1-255.6-89.3-407.4-1.7-36.2-9.4-92.3-11.1-128.5-6.5-137.9-31.3-241.4-62.5-367.2-40-161.2-120.1-303.1-192.5-449.5-9.5-19.2 0.8 0.3-9.7-15.4-348.9 182.8-729.5 248.8-1139.3 297.6-25.1 5.8-56.1 39.4-77.5 52.1l-231.7 142.3c-19.8 11.7-37.4 23.4-58.5 36.4-40.4 24.8-76.5 42.6-117.2 67-19.7 11.7-41.7 22.6-63 31.9-76.6 33.5-157.5 31.8-247.3 31.8-389.9 0-614.3-113.2-1017-1.2-187 52-335.5 153.6-501.1 241.2 8.6-32.3 89.6-142.2 115.7-168.9 15.7-16.1 19.6-23.2 33.5-39 107.2-122.3 401.8-199.6 546.9-223.5 119.4-19.6 506.8-60.6 643.4-59.8 124.7 0.8 242.7-18 354.1-64.5 226.5-94.7 466.5-206.7 661.5-359 371.4 21.3 764.9-54.7 1045-289.2 36.6 69.2 65.4 96.4 110.7 160.1 23.1 32.6 46 64.2 68 99.4 11.5 18.4 20.2 33.9 31.4 52.4 93.1 153.1 174.3 457.3 203.7 628 14.6 84.8 3.4 152.7 3.7 236.3 0.1 50.7 11.7 103 16.9 150.5 20 184 78 356.2 147.5 522.3 8.6 20.4 16.7 40.6 25.5 58.3 10.1 20.2 16.4 30.4 22.3 55.7-55-36.9-122-138.9-158.6-198.6zm-4332.9-2908.7c233.1-39.2 507-58.6 713.2 65 28.3 17 42.8 27.7 69 48.2l186 165.7c22.1 22.2 40.2 34.3 61.4 55.7 82.9 75.4 384.5 382.5 443.6 418.1 131.9 79.3 156.5 124.9 306.4 157.8 161.1 35.4 299.8 132.7 438.3 219.3 49.4 30.9 90.4 61.6 141.7 92.8l141.8 92.6c46.5 31 98.7 58.1 145.2 89.2-21.9 32.8-20.6 22.3-42.4 43.9-29.3 29.2-56.8 51.7-88.9 78.5-86.3 72.3-35.6 35.9-146.9 110.4-56.7 37.8-156.5 91.4-220.3 114.6-143.5 51.9-139.5 44.9-272.7 62.2l-319.6 20.9c-332.3-1.4-542 105.3-831.8 172.8 14.6-21.7 51.3-46.7 75-64.5 83.8-63.1 149.4-114.4 259.2-148.3 114.4-35.3 356.2-51.7 486.3-55 125.9-3.2 338.7-56 447.3-99.7 66.3-26.7 126.8-52.2 187.2-86.3l174.8-104.3c-15.6-4.2-23.8-14-37.9-23.5-141-95.3-205.1-160.7-375-244.5-103.9-51.3-406.7-99.1-515.5-159.9-51-28.5-87.2-62.6-125.2-103.7-11.8-12.7-13.1-17.9-25-30.7-12.3-13.2-14.8-16.6-25.8-30.1l-333.3-403.5c-77.9-100.9-247.7-241.8-366.9-308.5-204.2-114.3-532.7-143-757.3-35.2 18.8-70.6 145.9-99.6 208.1-110zm5581.5 1386.7c-404.5-70.6-492.4-336.2-779.3-493.4-49.8-27.2-41.6-33.7-96.7-5.6-32.7 16.7-61.8 28.9-92.3 47.3-118.3 71.4-220.9 154.3-333.8 229.9 13.6 20.3 27.6 42.7 40.9 65.2 51.9 87.8 105 153.9 149 252.9 10.4 23.3 20.4 42.7 30.1 70.4 44.1 126.5 41.3 323.1 26.6 460.9l-44.8 511.7 12 138.8c7.9 54 20.6 116.4 36.7 164.2 36.4 108.5 72.2 184.7 128 273.8 152.2 243.4 384.9 295.9 436.5 372.9-127.3-29.6-269.7-114.2-373.3-196.1-48.1-38-128.9-124.7-162.6-172.3-130.9-185.5-244.3-531.1-245.5-776.1-0.4-96.8 2.4-238-7.2-316.4-19.1-156.5-130.4-444-203.1-589.4l-80.3-148.5c-50.9-84.9-60.8-92.8-111.6-168.8l569.6-412-62.8-71.2c-21.2-21-44-44.5-60-68.4l209.8 69.4c33.5 12.8 67.7 25.3 99 40.4 215.4 103.8 220.5 119.4 390.3 290.7 24.9 25.2 46.9 41.3 72.5 67 124.6 124.8 321.5 278.1 483.4 342.7l95.7 38.2zm-1942.6-1414.9c101.3-88.4 260.3-200.4 376.5-265.4 86.7-48.5 202.8-97.1 304.3-125.4 59.8-16.7 110.9-29.1 176-41.7 298.1-57.8 433.5 18.2 637.8 18.2v11.2c-164.6 0-576.2 53.8-711.3 92.4-170.6 48.9-332.8 121.7-456.8 246.5-13.3 13.5-33.4 37.3-43.1 51.8 47.3 25 92 51.3 141.5 76.2 25.6 12.9 41.7 23.7 68.8 37.2 185.4 92.4 148.7 83.2 367.8 168 120.6 46.7 289.5 64.7 370 165.8 9.5 11.9 17.1 17.1 27 28.9l338.2 409.7c9.5 11.3 17.5 17.4 27.8 28 12.6 13.1 13.7 18 25 30.8l78.1 78.2c20 20.3 35.3 30.4 55.8 50.3 12.8 12.5 17.7 14 30.6 25.2 12.3 10.7 17.4 14.8 30.5 25.3 81.7 66.1 242.3 161.4 340.2 190.1 153.9 45.1 328.8 47.3 476.4-18.9 129.2-57.9 98.7-71.1 150.7-106-2.8 33.9-46.4 91.9-69.2 109.5-229.2 177.5-542.8 133.6-800.8 51.8-107.9-34.3-174.5-86.7-253.2-159.9-12.8-11.9-18-13.2-30.8-25-58.6-54.2-181.7-198.5-228.8-240l-62-55.3c-22.8-18.4-42-33.7-66.7-50.5-24.1-16.6-45-31.7-69.1-48.1-136.5-93.1-248.8-131.8-407.1-184.6-269.3-89.7-223.6-88.3-468.4-234.8-118.3-70.9-159.7-102.6-297.4-171.5-32.1-16.1-134.7-60.2-171.2-63.2 7.1-26.7 91.3-86 112.9-104.8zm-1799.7-1549.4c-32.6-79.5-53.4-121.7-100.1-195.7-62.4-98.9-124.3-190-179.7-294.7 68.3 18.2 262.1 213.5 321.4 292.6 162.5 216.9 170.8 419.8 133.1 692.1-21.8 157.8-41.2 290.7-17.6 448.2 21 140.4 137.6 401.3 203.1 533.7 54.8 110.7 108.1 190.3 161.1 290.5l-149.7 86.4c-48.3 32.1-204.2 160.6-250.9 194.1l-188 152.5c-19.7 18.9-39.8 35.6-54.3 57.3l143.5 57.4c9.1 3.6 18 6.1 24.8 8.7 14.3 5.5 11.6 3.5 21.4 12-236.6 55.2-441.1-79.8-593-221.9l-64.2-58.6c-21.7-22-39.4-33.5-61.4-55.7l-384.9-335.2c-21.5-18-105.9-101.8-118.8-121.1 118.8 27.6 222.8 96 314.9 165 101.5 76 374.5 326.6 444.2 342.9l110.8-84.6c81.6-61.2 147.9-102.4 228.5-156.6l261.6-139.7c-7.3-31.2-57.9-110-77-140.6-59.5-95-170.6-257.6-174.5-367.4l68.3-685.5c16.7-158 15.8-175 15.8-330.2 0-60-19.9-100.8-38.4-145.9zm1641.3 1615.1c-0.5 0.4-0.9 0.9-1.3 1.3-0.8 0-1.5 0.2-2.1 0.6h-4.7q-0.4 0-0.8 0.1-0.2-0.1-0.3-0.1h-0.1c-229.8-50.3-448.9-40.2-629.8-7.4-182.9 33.1-225.8 19.1-427.7 134.3-4.5-16.8-75.6-115-92.4-143.1-131.9-220.9-185.6-309.1-247.3-574.1-12.6-54.1-18.7-98.9-23.9-160.3-4.4-52.8-10.7-110.3-10.7-168l28-507.8c-2.9-49.4-11.2-116.4-11.2-167.5 0.7 1.1 1.6 2.7 2 3.5 0.4 0.7 1.6 2.6 2.1 3.5l14.8 35.4c5.5 16 9.7 29.4 13.4 42.5 9.2 32.9 17 58.5 24 93.2 29.7 147.7 41.3 255.7 55.8 407.4 36.7 383.6 118 524.9 292.5 854.8 281.2-101.5 457.3-150.4 760.2-142.9l0.7 0.8c131.8 5.2 311.5-88.7 459.8-191.6 154.2-107 264.6-224.9 332-249.4 196.8-100.1 194.6-69.9 411.3-57.9 157.1 8.7 372.1 39.9 541.1 45l122.9-0.2c301.3 0 583.3-153.2 785.7-358.5 13.2-13.4 20-27.9 34.8-37.8-5.5 23.5-27.8 62.2-40.1 82.6-79.6 131.7-146.8 243.4-270.7 343.4-22.9 18.5-45.6 37.2-69.7 53-86.2 56.8-260.7 111.4-367.9 123.4-244.4 27.2-406.7-28.9-569.7-11.6-273.6 29-313.1 52.8-559.2 177.5l-155.5 90.2c-41.4 7.8-344.9 232-393.4 283.7v0.1c-1.1 0.3-1.6 0.9-2.3 1.6q-0.2 0.2-0.3 0.3zm2234.4 1368.4l-6.5 4.7v-5.6zm-3155.4-1063.8c35.9-53.5 98.4-111.4 152.3-147.2 271.5-180.1 695.1-124 895.1 152.3 59 81.5 118.5 227 118.5 343.3 0 213.4-132.7 425.9-294.5 535.5-195.6 132.7-396.1 168.5-610.5 57.5-205.7-106.5-380.6-347.7-380.6-605.5 0-131 54.5-239 119.7-335.9zm149.4 363.4c0 202.3 164 366.3 366.3 366.3 202.3 0 366.4-164 366.4-366.3 0-202.4-164.1-366.4-366.4-366.4-202.3 0-366.3 164-366.3 366.4zm1782.7 2401.8l3.1 12z"/>
</svg>